# xmcd CD database file
#
# Track frame offsets:
#	150
#	13446
#	27914
#	43203
#	55817
#	68270
#	80864
#	93605
#	106303
#	118974
#	132065
#	146458
#	158727
#	170310
#	183318
#	196756
#	209326
#	222666
#	235658
#	248261
#	260371
#	272715
#	284766
#	297217
#	308838
#	320302
#
# Disc length: 4435 seconds
#
# Revision: 0
# Processed by: cddbd v1.5PL3 Copyright (c) Steve Scherf et al.
# Submitted via: CDex 1.51
#
DISCID=7f11511a
DTITLE=Big Joe Williams - Big Joe Williams and the Stars of Mississippi Blues, Disc B
DYEAR=2004
DGENRE=Blues
TTITLE0=Drop Down Blues
TTITLE1=Somebody's Been Worryin'
TTITLE2=Wanita
TTITLE3=Vitamin A
TTITLE4=His Spirit Lives On
TTITLE5=Baby Please Don't Go
TTITLE6=Baby Please Don't Go - (alternate take)
TTITLE7=Stack Of Dollars
TTITLE8=Mellow Apples
TTITLE9=Wild Cow Moan
TTITLE10=P Vine Blues
TTITLE11=Bad And Weakhearted Blues
TTITLE12=King Biscuit Stomp
TTITLE13=I'm A Highway Man
TTITLE14=Banta Rooster Blues
TTITLE15=Mean Step Father Blues
TTITLE16=House Lady Blues
TTITLE17=Don't You Leave Me Here
TTITLE18=Jivin' Woman
TTITLE19=She's A Married Woman
TTITLE20=Mama Don't Allow Me
TTITLE21=Delta Blues
TTITLE22=Overhauling Blues
TTITLE23=Whistling Pines
TTITLE24=She Left Me A Mule
TTITLE25=Bad Heart Blues 
EXTD=YEAR: 2004
EXTT0=
EXTT1=
EXTT2=
EXTT3=
EXTT4=
EXTT5=
EXTT6=
EXTT7=
EXTT8=
EXTT9=
EXTT10=
EXTT11=
EXTT12=
EXTT13=
EXTT14=
EXTT15=
EXTT16=
EXTT17=
EXTT18=
EXTT19=
EXTT20=
EXTT21=
EXTT22=
EXTT23=
EXTT24=
EXTT25=
PLAYORDER=
